<?xml version="1.0" encoding="UTF-8" standalone="no"?>
<svg
   xmlns:dc="http://purl.org/dc/elements/1.1/"
   xmlns:cc="http://creativecommons.org/ns#"
   xmlns:rdf="http://www.w3.org/1999/02/22-rdf-syntax-ns#"
   xmlns:svg="http://www.w3.org/2000/svg"
   xmlns="http://www.w3.org/2000/svg"
   xmlns:sodipodi="http://sodipodi.sourceforge.net/DTD/sodipodi-0.dtd"
   xmlns:inkscape="http://www.inkscape.org/namespaces/inkscape"
   inkscape:version="1.0 (4035a4fb49, 2020-05-01)"
   sodipodi:docname="logo-creeser.svg"
   viewBox="0 0 48.999999 50"
   height="50"
   width="49"
   xml:space="preserve"
   id="svg833"
   version="1.1"
   inkscape:export-filename="C:\Users\Jorge\Documents\Web pages\pure\assets\apple-icon-180x180.png"
   inkscape:export-xdpi="28.799999"
   inkscape:export-ydpi="28.799999"><metadata
     id="metadata839"><rdf:RDF><cc:Work
         rdf:about=""><dc:format>image/svg+xml</dc:format><dc:type
           rdf:resource="http://purl.org/dc/dcmitype/StillImage" /><dc:title></dc:title></cc:Work></rdf:RDF></metadata><defs
     id="defs837" /><sodipodi:namedview
     inkscape:current-layer="g841"
     inkscape:window-maximized="1"
     inkscape:window-y="-8"
     inkscape:window-x="-8"
     inkscape:cy="38.000592"
     inkscape:cx="-30.033387"
     inkscape:zoom="4.0611897"
     showgrid="false"
     id="namedview835"
     inkscape:window-height="715"
     inkscape:window-width="1366"
     inkscape:pageshadow="2"
     inkscape:pageopacity="0"
     guidetolerance="10"
     gridtolerance="10"
     objecttolerance="10"
     borderopacity="1"
     bordercolor="#666666"
     pagecolor="#ffffff"
     inkscape:document-rotation="0" /><g
     transform="matrix(1.3333333,0,0,-1.3333333,0,353.33333)"
     inkscape:label="ink_ext_XXXXXX"
     inkscape:groupmode="layer"
     id="g841"><g
       transform="matrix(0.0142154,0,0,0.0142154,0.24456059,227.38688)"
       id="g843"
       style="stroke-width:7.03467"><path
         id="path845"
         style="fill:#e01f23;fill-opacity:1;fill-rule:nonzero;stroke:none;stroke-width:7.03467"
         d="m 183.32,132.77 c 71.52,12.152 145.469,11.531 190.7,70.82 117.269,153.789 109.3,310.242 117.968,461.058 8.672,150.864 33.953,296.051 103.793,411.132 -35.82,-10.43 -53.441,-45.19 -69.14,-75.47 C 411.801,778.629 496.332,477.891 367.27,268.48 309.609,174.961 256.801,190.941 183.32,132.77 Z" /><path
         id="path847"
         style="fill:#ff300d;fill-opacity:1;fill-rule:nonzero;stroke:none;stroke-width:7.03467"
         d="m 1741.88,1486.17 c 193.47,62.03 279.76,-80.74 470.07,-69.53 21.84,1.29 245.32,78.87 228.64,122.66 -115.98,-87.03 -204.89,-51.6 -318.56,-50.51 -122.42,1.17 -365.31,186.29 -380.15,-2.62 z" /><path
         id="path849"
         style="fill:#e01f23;fill-opacity:1;fill-rule:nonzero;stroke:none;stroke-width:7.03467"
         d="m 1480.31,1575.62 c 0.24,183.17 222.93,233.13 112.19,452.35 -69.34,137.23 -73.28,210.58 -61.48,318.2 11.44,104.1 70.7,261.95 124.57,284.18 -51.37,11.13 -192.66,-96.05 -223.56,-176.56 -30.94,-80.51 -0.82,-271.33 29.81,-323.32 88.71,-150.47 -62.19,-402.03 18.47,-554.85 z" /><path
         id="path851"
         style="fill:#ffca0d;fill-opacity:1;fill-rule:nonzero;stroke:none;stroke-width:7.03467"
         d="m 1443.59,1678.4 c 154.65,147.85 80.28,339.45 44.18,415.74 -65.86,139.18 -91.25,201.09 -79.18,306.33 5.86,51.01 19.03,106.6 70.82,133.9 -104.06,12.35 -229.33,-185.62 -214.88,-262.5 32.89,-174.88 237.62,-357.38 179.06,-593.47 z" /><path
         id="path853"
         style="fill:#e01f23;fill-opacity:1;fill-rule:nonzero;stroke:none;stroke-width:7.03467"
         d="m 515.98,438.98 c 93.321,61.411 138.86,412.7 186.25,556.18 11.598,35.11 86.989,176.68 150.5,250.58 71.098,82.7 189.15,174.61 252.04,208.63 -70.47,-9.29 -194.18,-88.71 -264.969,-165 C 734.34,1175.66 640.039,1011.33 624.141,876.988 608.281,742.699 578.238,621.988 513.711,517.301 456.051,423.75 407.73,438.59 344.34,450.98 c 52.89,-70.941 143.121,-30.781 171.64,-12 z" /><path
         id="path855"
         style="fill:#ef9e40;fill-opacity:1;fill-rule:nonzero;stroke:none;stroke-width:7.03467"
         d="m 404.73,835.898 c 36.829,49.84 80.04,96.524 130.7,132.153 38.59,27.109 66.949,48.589 128.398,59.609 -27.148,15.97 -93.277,-4.07 -133.437,-24.89 C 464.879,968.91 419.879,918.789 371.719,848.629 357.461,827.891 299.02,739.262 302.422,645.309 351.449,717.93 361.879,777.891 404.73,835.898 Z" /><path
         id="path857"
         style="fill:#bd1a34;fill-opacity:1;fill-rule:nonzero;stroke:none;stroke-width:7.03467"
         d="M 283.59,232.191 C 223.09,187.379 166.879,143.051 125.078,135.66 59.3398,124.059 -4.37109,134.77 0.351563,181.449 4.48828,221.84 82.0313,175.781 122.191,184.73 c 90.508,20.231 77.11,24.18 161.399,47.461 z" /><path
         id="path859"
         style="fill:#f59221;fill-opacity:1;fill-rule:nonzero;stroke:none;stroke-width:7.03467"
         d="M 230.781,34.3711 C 103.871,-18.9102 2.46094,15.1602 1.37109,76.7188 0.230469,138.281 119.34,94.5313 175.43,113.789 258.199,142.23 317.93,164.262 411.602,228.359 374.02,113.75 293.238,62.0703 230.781,34.3711 Z" /><path
         id="path861"
         style="fill:#ee8a1f;fill-opacity:1;fill-rule:nonzero;stroke:none;stroke-width:7.03467"
         d="M 257.699,221.762 C 304.02,85.4688 442.191,97.5391 489.801,154.922 c 63.558,76.598 75.398,294.297 93.359,444.297 11.059,92.191 46.25,416.911 166.719,604.301 80.082,124.53 202.582,198.55 339.891,270.07 -315.551,-77.57 -435,-326.05 -480.899,-502.93 -28.402,-109.531 -54.531,-271.129 -61.332,-385.699 -6.801,-114.57 -5.551,-254.84 -70.078,-359.531 -28.832,-46.801 -78.16,-60.231 -105.082,-40.86 -83.199,59.918 -5.039,171.168 52.5,150.551 -90.109,82.301 -186.008,-57.93 -167.18,-113.359 z" /><path
         id="path863"
         style="fill:#ee8a1f;fill-opacity:1;fill-rule:nonzero;stroke:none;stroke-width:7.03467"
         d="M 1163.28,1338.79 C 1080.82,1113.52 1054.84,1089.88 948.129,1017.62 830.98,938.238 661.41,1038.59 532.93,929.02 474.922,879.57 400.59,842.73 365.469,566.41 c 51.211,117.11 58.941,201.828 134.41,266.871 92.742,79.918 93.871,112.617 348.871,114.957 210.74,1.992 328.59,270.082 314.53,390.552 z" /><path
         id="path865"
         style="fill:#e01f23;fill-opacity:1;fill-rule:nonzero;stroke:none;stroke-width:7.03467"
         d="M 595.781,1075.78 C 490.199,1048.44 403.91,1017.89 344.531,976.02 202.27,875.59 232.539,752.93 232.539,752.93 c 38.012,-91.41 70.121,116.41 118.793,162.66 70.617,67.14 121.68,105.74 244.449,160.19 z" /><path
         id="path867"
         style="fill:#ffca0d;fill-opacity:1;fill-rule:nonzero;stroke:none;stroke-width:7.03467"
         d="M 362.148,674.648 C 361.988,602.969 336.449,552.422 305.512,512.148 223.09,404.922 153.871,406.129 129.879,462.07 c -19.879,46.371 92.742,43.2 130.32,76.84 42.18,37.731 66.442,42.891 101.949,135.738 z" /><path
         id="path869"
         style="fill:#f0731d;fill-opacity:1;fill-rule:nonzero;stroke:none;stroke-width:7.03467"
         d="M 336.52,502.109 C 319.449,428.789 308.91,397.969 284.301,357.27 225.27,259.691 167.27,249.34 153.012,313.629 c -14.262,64.301 73.828,52.5 105.187,84.851 30.121,31.09 40.821,31.68 78.321,103.629 z" /><path
         id="path871"
         style="fill:#ffca0d;fill-opacity:1;fill-rule:nonzero;stroke:none;stroke-width:7.03467"
         d="M 708.98,593.551 C 694.488,457.191 656.801,419.609 619.801,431.602 586.172,442.461 637.73,558.32 649.609,621.172 664.488,700.27 676.52,744.691 701.48,856.949 730,738.551 716.328,662.5 708.98,593.551 Z" /><path
         id="path873"
         style="fill:#ffca0d;fill-opacity:1;fill-rule:nonzero;stroke:none;stroke-width:7.03467"
         d="m 866.289,1240.31 c -90.16,-105.82 -93.09,-158.12 -58.48,-176.99 31.453,-17.11 74.73,93.2 112.191,139.73 58.48,72.46 81.72,122.03 175.78,217.07 -106.991,-61.6 -183.901,-126.33 -229.491,-179.81 z" /><path
         id="path875"
         style="fill:#ffca0d;fill-opacity:1;fill-rule:nonzero;stroke:none;stroke-width:7.03467"
         d="m 1307.81,1488.36 c -54.84,-38.32 -72.58,-80.63 -33.4,-107.62 24.85,-17.11 51.1,40.04 75.9,60.98 31.68,26.76 37.62,49.76 92.97,82.65 -57.34,-15.78 -107.73,-16.64 -135.47,-36.01 z" /><path
         id="path877"
         style="fill:#ee8a1f;fill-opacity:1;fill-rule:nonzero;stroke:none;stroke-width:7.03467"
         d="m 1196.41,1579.14 c -66.64,-44.3 -94.89,-101.25 -58.91,-119.22 32.46,-16.21 68.44,67.81 111.72,86.21 45.82,19.46 72.34,22.31 147.73,21.84 -56.95,27.93 -166.83,33.55 -200.54,11.17 z" /><path
         id="path879"
         style="fill:#ee8a1f;fill-opacity:1;fill-rule:nonzero;stroke:none;stroke-width:7.03467"
         d="m 1496.72,1398.32 c -65.43,-1.17 -92.81,35.35 -77.34,64.96 13.98,26.72 62.65,-1.6 92.92,5.08 44.54,9.8 66.68,16.95 127.04,50.59 -17.86,-66.53 -114.57,-120.08 -142.62,-120.63 z" /><path
         id="path881"
         style="fill:#9a2c4b;fill-opacity:1;fill-rule:nonzero;stroke:none;stroke-width:7.03467"
         d="m 1354.38,1422.89 c -25.67,-17.93 -25.16,-36.05 -6.88,-48.67 11.64,-8.01 37.42,12.42 48.13,27.42 13.35,18.67 1.05,46.21 12.69,67.58 -29.57,-13.36 -40.98,-37.27 -53.94,-46.33 z" /><path
         id="path883"
         style="fill:#9a2c4b;fill-opacity:1;fill-rule:nonzero;stroke:none;stroke-width:7.03467"
         d="m 1526.72,1486.02 c -29.69,-9.93 -48.95,6.44 -47.81,28.63 0.7,14.06 26.99,19.57 42.89,21.87 26.13,3.87 53.83,-10.35 77.93,-14.14 -20.32,-15.51 -47.7,-27.89 -73.01,-36.36 z" /><path
         id="path885"
         style="fill:#ef9e40;fill-opacity:1;fill-rule:nonzero;stroke:none;stroke-width:7.03467"
         d="m 1215.43,1137.54 c 19.26,29.49 26.05,67.11 49.73,93.2 26.64,29.38 37.5,54.92 98.94,65.94 -27.15,15.98 -69.26,-12.23 -95.58,-33.28 -41.02,-32.78 -39.22,-48.44 -56.68,-74.22 -50.94,-75.2 -19.07,-95.7 -139.73,-233.828 99.49,67.348 101.09,117.458 143.32,182.188 z" /><path
         id="path887"
         style="fill:#ef9e40;fill-opacity:1;fill-rule:nonzero;stroke:none;stroke-width:7.03467"
         d="m 1651.33,1186.68 c -21.29,32.85 -21.6,49.3 -40.16,67.93 -26.95,27.07 -43.4,49.02 -98.4,58.87 24.3,14.25 77.31,-17.46 100.86,-36.25 36.72,-29.26 40.24,-58.48 63.87,-84.81 43.52,-48.4 44.45,-112.73 142.62,-133.44 -123.01,-41.36 -147.5,94.85 -168.79,127.7 z" /><path
         id="path889"
         style="fill:#cd7e41;fill-opacity:1;fill-rule:nonzero;stroke:none;stroke-width:7.03467"
         d="m 1370.27,1369.57 c 37.43,9.06 82.03,1.37 121.53,12.07 31.01,8.4 70.5,26.41 88.47,40.35 -13.16,-40.58 -62.65,-49.22 -84.14,-57.15 -58.9,-21.75 -97.77,-5.78 -142.18,-26.01 -33.83,-15.39 -59.97,-18.21 -89.42,-70.16 -1.29,40.63 60.24,89.85 105.74,100.9 z" /><path
         id="path891"
         style="fill:#cd7e41;fill-opacity:1;fill-rule:nonzero;stroke:none;stroke-width:7.03467"
         d="m 1366.64,1328.09 c 33.56,7.81 73.52,1.21 108.91,10.39 27.77,7.22 63.2,22.69 79.29,34.64 -11.79,-34.84 -56.17,-42.26 -75.39,-49.1 -52.81,-18.67 -87.61,-4.96 -127.42,-22.34 -30.31,-13.2 -53.71,-15.63 -80.12,-60.31 -1.13,34.96 53.99,77.22 94.73,86.72 z" /><path
         id="path893"
         style="fill:#ef9e40;fill-opacity:1;fill-rule:nonzero;stroke:none;stroke-width:7.03467"
         d="m 1126.48,1289.8 c 40.12,71.53 54.85,79.54 110.9,142.62 56.06,63.09 97.03,74.3 205.9,91.95 -48.08,25.59 -141.6,0.98 -199.96,-33 -47.97,-27.93 -70.78,-85.47 -104.49,-129.53 -88.67,-115.94 -91.29,-260 -257.029,-354.46 98.75,-18.829 186.989,179.57 244.679,282.42 z" /><path
         id="path895"
         style="fill:#e01f23;fill-opacity:1;fill-rule:nonzero;stroke:none;stroke-width:7.03467"
         d="m 1019.53,1206.76 c 26.1,36.17 32.27,83.79 56.45,121.21 18.75,28.94 31.91,70.58 67.61,78.24 -27.14,15.98 -59.14,-30.12 -85.5,-51.17 -41.02,-32.81 -60.86,-52.11 -88.012,-113.4 -27.148,-61.29 -48.168,-149.41 -99.449,-175.66 99.492,31.56 108.98,85.39 148.901,140.78 z" /><path
         id="path897"
         style="fill:#c63c56;fill-opacity:1;fill-rule:nonzero;stroke:none;stroke-width:7.03467"
         d="M 1073.05,986.719 C 985.82,908.09 775.16,871.801 727.852,915.738 1000.55,947.34 989.84,949.34 1077.23,1036.17 c 80.62,80.08 69.92,193.6 113.2,321.56 -4.45,-220.62 -21.02,-284.14 -117.38,-371.011 z" /><path
         id="path899"
         style="fill:#ffca0e;fill-opacity:1;fill-rule:nonzero;stroke:none;stroke-width:7.03467"
         d="m 1263.28,1321.45 c 18.48,25.23 12.15,42.26 -9.26,48.32 -13.59,3.82 -31.4,-23.79 -36.68,-41.45 -6.56,-21.95 13.95,-44.06 9.85,-68.05 23.63,22.19 26.76,48.44 36.09,61.18 z" /><path
         id="path901"
         style="fill:#e01f23;fill-opacity:1;fill-rule:nonzero;stroke:none;stroke-width:7.03467"
         d="m 1597.46,1406.05 c -30,-53.98 -57.38,-61.68 -71.95,-71.83 34.29,-2.31 55.9,-8.99 80.31,-22.23 47.7,-25.82 99.96,-97.03 121.95,-107.54 -38.43,53.64 -54.84,161.96 -130.31,201.6 z" /><path
         id="path903"
         style="fill:#c61a30;fill-opacity:1;fill-rule:nonzero;stroke:none;stroke-width:7.03467"
         d="m 1630.27,1414.14 c 78.44,-96.8 106.84,-197.93 132.15,-245.82 16.96,-32.11 101.53,-156.8 304.1,-105.2 -135.11,17.39 -183.55,82.04 -249.18,193.72 -61.75,105.07 -149.33,137.46 -187.07,157.3 z" /><path
         id="path905"
         style="fill:#e49a26;fill-opacity:1;fill-rule:nonzero;stroke:none;stroke-width:7.03467"
         d="m 1630.27,1414.14 c 171.18,-70.47 203.09,-181.56 274.3,-260 45.12,-49.69 124.14,-80.98 190,-67.46 44.65,9.14 119.3,19.84 100.27,92.77 -28.98,-101.52 -205.5,-3.04 -285.62,98.83 -75.35,95.86 -227.85,166.06 -278.95,135.86 z" /><path
         id="path907"
         style="fill:#ffca0d;fill-opacity:1;fill-rule:nonzero;stroke:none;stroke-width:7.03467"
         d="m 1660.12,1418.01 c 102.73,56.09 283.2,-122.46 405.78,-211.41 55.86,-40.51 97.46,7.5 138.32,33.13 54.3,34.14 143.44,66.36 126.76,151.01 -27.31,-94.84 -204.57,-56.6 -310,25.47 -99.18,77.23 -230.12,156.02 -360.86,1.8 z" /><path
         id="path909"
         style="fill:#cd7e41;fill-opacity:1;fill-rule:nonzero;stroke:none;stroke-width:7.03467"
         d="m 1922.15,1340.74 c 27.54,-21.33 64.92,-64.84 103.05,-89.88 24.96,-16.41 50.11,-29.73 80.85,-38.63 30.71,-8.95 80.43,46.36 43.21,84.41 76.64,-37.46 -3.48,-107.34 -40.71,-107.5 -37.22,-0.12 -94.53,46.88 -129.76,77.31 -71.56,61.79 -74.81,90.66 -210.04,151.44 50.74,4.84 119.96,-51.21 153.4,-77.15 z" /><path
         id="path911"
         style="fill:#9a2c4b;fill-opacity:1;fill-rule:nonzero;stroke:none;stroke-width:7.03467"
         d="m 2125.31,1379.14 c 33.71,-13.63 55.82,-30.98 74.3,-27.38 16.44,3.2 48.63,13.83 1.05,30.19 60.12,27.42 55.16,-47.93 20.94,-48.08 -34.22,-0.12 -64.37,12.03 -93.71,25.66 -57.07,26.49 -84.37,51.92 -155.39,106.88 80.66,-27.89 103.75,-67.43 152.81,-87.27 z" /><path
         id="path913"
         style="fill:#9a2c4b;fill-opacity:1;fill-rule:nonzero;stroke:none;stroke-width:7.03467"
         d="m 2260.2,1474.14 c 51.75,4.92 115.5,-5.78 146.13,33.59 16.6,21.37 80.31,71.8 -2.11,81.1 87.42,38.12 61.72,-85 33.48,-104.22 -28.29,-19.18 -78.44,-34.49 -120.4,-37.54 -80.31,-5.78 -142.14,9.26 -238.51,38.05 48.59,16.25 137.93,-15.08 181.41,-10.98 z" /><path
         id="path915"
         style="fill:#9a2c4b;fill-opacity:1;fill-rule:nonzero;stroke:none;stroke-width:7.03467"
         d="m 1637.93,2374.18 c 16.29,1.56 39.45,9.53 16.68,-50.04 52.23,10.27 22.23,74.81 -2.15,82.46 -52.15,16.37 -101.48,-77.97 -90.98,-146.17 10.36,-66.84 16.72,-36.88 30.63,-172.31 25.12,119.38 -43.24,277.58 45.82,286.06 z" /><path
         id="path917"
         style="fill:#9a2c4b;fill-opacity:1;fill-rule:nonzero;stroke:none;stroke-width:7.03467"
         d="m 2257.85,1608.83 c -0.31,16.79 4.57,41.21 -47.77,11.95 3.9,54.3 67.07,30.55 76.01,6.13 18.79,-51.44 -65.31,-102.11 -129.06,-98.28 -62.54,3.79 -37.93,15.63 -163.83,16.14 106.96,37.65 208.4,-8.83 264.65,64.06 z" /><path
         id="path919"
         style="fill:#9a2c4b;fill-opacity:1;fill-rule:nonzero;stroke:none;stroke-width:7.03467"
         d="m 1674.45,2611.87 c 21.64,-3 54.18,-1.79 5.59,-52.96 70.94,-4.69 52.81,66.01 23.63,80.23 -62.3,30.39 -156.52,-46.91 -164.72,-115.7 -8.05,-67.46 9.8,-40.32 -15.55,-175.04 70.78,108.28 32.89,280.27 151.05,263.47 z" /><path
         id="path921"
         style="fill:#df9d1d;fill-opacity:1;fill-rule:nonzero;stroke:none;stroke-width:7.03467"
         d="m 1285.7,2328.09 c 17.15,23.63 37.54,74.53 80.24,-35.12 14.33,102.19 -61.84,73.32 -90.08,52.93 -81.33,-58.79 -11.64,-189.26 63.52,-294.38 51.09,-71.48 78.71,-311.75 104.21,-373.12 47.19,176.99 -46.44,306.05 -102.85,431.37 -56.36,125.35 -97.26,160.15 -55.04,218.32 z" /><path
         id="path923"
         style="fill:#9a2c4b;fill-opacity:1;fill-rule:nonzero;stroke:none;stroke-width:7.03467"
         d="m 1446.09,1593.52 c -43.82,34.68 -45.97,60.78 -74.72,84.1 -50.63,41.05 -75.63,23.75 -168.13,95.15 30.24,-67.69 78.95,-71.87 121.56,-103.12 38.72,-28.36 33.99,-83.67 121.29,-76.13 z" /><path
         id="path925"
         style="fill:#cd7e41;fill-opacity:1;fill-rule:nonzero;stroke:none;stroke-width:7.03467"
         d="m 1432.58,1629.22 c -3.56,74.41 -91.37,109.02 -144.3,154.69 -64.53,55.7 -74.45,34.8 -209.06,143.63 132.89,-131.49 122.93,-98.48 183.16,-149.38 57.5,-48.59 129.38,-69.18 170.2,-148.94 z" /><path
         id="path927"
         style="fill:#e01f23;fill-opacity:1;fill-rule:nonzero;stroke:none;stroke-width:7.03467"
         d="m 1443.59,1678.4 c -12.14,149.8 -84.21,187.54 -136.75,274.61 -62.19,103.04 -209.81,216.95 -209.89,291.09 -100.188,-147.19 30.67,-316.21 127.89,-393.63 55.79,-44.42 111.18,-96.02 218.75,-172.07 z" /><path
         id="path929"
         style="fill:#ee8a1f;fill-opacity:1;fill-rule:nonzero;stroke:none;stroke-width:7.03467"
         d="m 1443.59,1678.4 c 28.01,154.06 -47.5,294.33 -103.79,354.57 -102.77,109.92 -166.28,200.66 -156.4,288.44 3.16,28.2 5.51,65.15 51.48,58.32 -79.72,50.97 -136.64,-63.83 -128.47,-141.76 19.57,-187.27 324.61,-315.51 337.18,-559.57 z" /><path
         id="path931"
         style="fill:#9a2c4b;fill-opacity:1;fill-rule:nonzero;stroke:none;stroke-width:7.03467"
         d="m 2195.23,1417.11 c 170.59,-10.59 193.6,-1.09 253.21,41.64 28.86,20.66 124.02,96.56 97.73,109.61 0,0 -84.02,-95.47 -142.93,-121.52 -62.93,-27.82 -57.15,-10.32 -208.01,-29.73 z" /><path
         id="path933"
         style="fill:#cd7e41;fill-opacity:1;fill-rule:nonzero;stroke:none;stroke-width:7.03467"
         d="m 1668.59,1513.95 c 66.06,72.03 108.95,115.82 178.25,165.07 -19.61,-6.64 -55.36,-26.25 -69.61,-10.04 -28.79,-15.54 -87.74,-67.65 -102.78,-83 18.21,-15.32 6.37,-42.82 -5.86,-72.03 z" /><path
         id="path935"
         style="fill:#cd7e41;fill-opacity:1;fill-rule:nonzero;stroke:none;stroke-width:7.03467"
         d="m 1685.39,1653.28 c 20.66,22.38 70.63,-22.5 91.84,15.7 -45.08,40.67 -60.32,34.81 -90.78,26.68 -36.96,-9.88 -52.35,-70.5 -79.11,-82.89 -26.79,-12.38 -55,-1.36 -45.5,35.35 -48.21,-23.08 -9.57,-70.35 15.93,-79.72 42.93,-15.74 61.84,35.27 107.62,84.88 z" /><path
         id="path937"
         style="fill:#cd7e41;fill-opacity:1;fill-rule:nonzero;stroke:none;stroke-width:7.03467"
         d="m 1682.46,1581.09 c 35.27,-26.6 44.42,5.55 -8.32,35.08 -21.8,12.54 -22.81,-1.91 -40.94,3.28 -18.08,5.2 -38.94,12.66 -35.86,33.4 -45.66,-15.31 -3.67,-43.71 11.18,-42.26 26.6,2.57 31.99,2.14 73.94,-29.5 z" /><path
         id="path939"
         style="fill:#cd7e41;fill-opacity:1;fill-rule:nonzero;stroke:none;stroke-width:7.03467"
         d="m 1633.91,1673.24 c 12.89,-3.9 28.16,-0.35 41.75,-5 10.67,-3.59 24.3,-11.48 30.51,-17.62 -4.69,17.97 -21.68,21.68 -29.1,25.12 -20.31,9.49 -36.8,-0.39 -48.87,11.1 -8.63,8.16 -14.02,11.21 -9.61,34.21 -17.85,-14.76 -0.35,-43.04 15.32,-47.81 z" /><path
         id="path941"
         style="fill:#ee8a1f;fill-opacity:1;fill-rule:nonzero;stroke:none;stroke-width:7.03467"
         d="m 1708.36,1674.65 c 19.06,1.56 45.86,-13.2 47.5,-32.23 2.07,-24.26 -29.02,-44.92 -52.73,-50.74 -21.14,-5.16 -20.47,39.34 -62.62,18.32 23.75,32.42 36.68,62.07 67.85,64.65 z" /></g></g></svg>
